<mxfile host="app.diagrams.net" modified="2023-07-30T12:55:03.672Z" agent="Mozilla/5.0 (Windows NT 10.0; Win64; x64) AppleWebKit/537.36 (KHTML, like Gecko) Chrome/115.0.0.0 Safari/537.36 Edg/115.0.1901.188" version="21.6.6" etag="I44xP8KYR4Q0Z2qGqqGS" type="github">
  <diagram name="第 1 页" id="B3yBC24UUILsiZAlBeVS">
    <mxGraphModel>
      <root>
        <mxCell id="0" />
        <mxCell id="1" parent="0" />
      </root>
    </mxGraphModel>
  </diagram>
</mxfile>
